<?xml version="1.0" encoding="utf-8"?>
<!-- Generator: Adobe Illustrator 16.0.0, SVG Export Plug-In . SVG Version: 6.00 Build 0)  -->
<!DOCTYPE svg PUBLIC "-//W3C//DTD SVG 1.1//EN" "http://www.w3.org/Graphics/SVG/1.1/DTD/svg11.dtd">
<svg version="1.1" id="Layer_1" xmlns="http://www.w3.org/2000/svg" xmlns:xlink="http://www.w3.org/1999/xlink" x="0px" y="0px"
	 width="284.021px" height="113.6px" viewBox="0 0 284.021 113.6" enable-background="new 0 0 284.021 113.6" xml:space="preserve">
<text transform="matrix(1 0 0 1 19.5327 49.2607)"><tspan x="0" y="0" fill="#FFFFFF" font-family="'LemonMilk'" font-size="51.5587">m</tspan><tspan x="43.604" y="0" fill="#FFFFFF" font-family="'LemonMilk'" font-size="51.5587" letter-spacing="-12">a</tspan><tspan x="69.584" y="0" fill="#FFFFFF" font-family="'LemonMilk'" font-size="51.5587">v</tspan></text>
<text transform="matrix(1 0 0 1 126.5337 49.167)" fill="#FFFFFF" font-family="'LemonMilk'" font-size="51.5587">erick</text>
<text transform="matrix(1 0 0 1 67.4165 100.1309)" fill="#FFFFFF" font-family="'LemonMilk'" font-size="51.5587">media</text>
<path fill="#FFFFFF" stroke="#FFFFFF" stroke-width="0.09" stroke-miterlimit="10" d="M22.533,16.746
	c0,0-26.565,1.914-20.065-13.586c0,0-12.702,21.137,20.065,21.137"/>
<path fill="#FFFFFF" stroke="#FFFFFF" stroke-width="0.09" stroke-miterlimit="10" d="M261.489,13.609
	c0,0,26.564,1.914,20.064-13.586c0,0,12.703,21.137-20.064,21.137c0,0-9.93,0.24-10.367-1.01"/>
</svg>
