<?xml version="1.0" encoding="utf-8"?>
<!-- Generator: Adobe Illustrator 16.0.0, SVG Export Plug-In . SVG Version: 6.00 Build 0)  -->
<!DOCTYPE svg PUBLIC "-//W3C//DTD SVG 1.1//EN" "http://www.w3.org/Graphics/SVG/1.1/DTD/svg11.dtd">
<svg version="1.1" id="Layer_1" xmlns="http://www.w3.org/2000/svg" xmlns:xlink="http://www.w3.org/1999/xlink" x="0px" y="0px"
	 width="571.717px" height="571.719px" viewBox="0 0 571.717 571.719" enable-background="new 0 0 571.717 571.719"
	 xml:space="preserve">
<circle fill="#FFFFFF" stroke="#000000" stroke-width="4" stroke-miterlimit="10" cx="285.858" cy="285.679" r="277.678"/>
<circle fill="#FFFFFF" cx="285.858" cy="288.563" r="220.947"/>
<path fill="#ED1C24" d="M506.806,288.561c0,99.812-66.187,184.167-157.062,211.573c-20.227,6.098-20.227-429.243,0-423.146
	C440.619,104.394,506.806,188.75,506.806,288.561z"/>
<path fill="#074929" d="M64.912,287.332c0-99.811,66.184-184.166,157.061-211.57c20.225-6.098,20.225,429.245,0,423.143
	C131.096,471.502,64.912,387.146,64.912,287.332z"/>
<rect x="199.751" y="55.334" fill="#FFFFFF" width="172.275" height="460.691"/>
<path fill="#FEFEFE" stroke="#000000" stroke-width="2" stroke-miterlimit="10" d="M145.801,179.135
	c5.141-3.386,5.5-6.699,2.047-11.464c-1.927-2.657-3.418-5.896-4.115-9.089c-0.501-2.29-0.091-5.685,4.105-4.552
	c1.604,0.433,2.802-0.399,4.159-0.854c3.438-1.15,6.555-3.064,10.663-1.5c3.103,1.182,8.148-5.423,7.496-9.776
	c-0.595-3.983,2.544-5.674,4.495-7.866c1.177-1.32,1.615,0.707,1.591,1.776c-0.115,4.944,1.786,8.255,6.908,9.471
	c2.156,0.513,1.793,2.79,2.285,4.469c0.5,1.702,1.359,4.105,3.145,3.92c2.257-0.234,1.125-2.581,0.938-4.051
	c-0.271-2.162,1.007-3.796,1.92-5.405c1.869-3.292,4.056-6.323,2.506-10.44c-0.415-1.104-0.045-2.347,1.376-2.696
	c1.652-0.404,1.965,1.017,2.143,2.024c0.896,5.094,2.472,4.473,7.438,3.367c7.137-1.587,4.37-7.024,6.722-10.188
	c2.348-1.718,4.016,3.36,5.84,0.895c1.045-1.408-0.445-3.939,0.052-6.088c0.938-4.064,3.413-5.185,6.808-2.434
	c3.574,2.896,5.781,1.676,6.903-2.067c1.206-4.022,3.803-5.365,7.667-5.278c7.68,0.172,14.438,1.151,19.528,8.577
	c2.661,3.876,9.23,3.146,14.117,4.159c3.51,0.729,7.21-0.315,10.694,0.864c1.152,0.39,3.02-0.375,3.342,1.309
	c0.301,1.564-1.011,2.623-2.275,3.471c-0.539,0.359-1.062,0.767-1.52,1.225c-2.364,2.372-2.676,4.461,0.93,5.883
	c1.195,0.472,3.334,1.373,2.328,2.324c-3.946,3.717-0.017,7.254,0.522,10.288c0.607,3.425,0.18,4.384-2.428,6.108
	c-3.283,2.168-4.136-0.616-5.825-2.333c-3.938,5.325-8.207,9.783-15.164,10.365c-1.471,0.123-2.546,1.582-2.769,3.126
	c-0.831,5.77-2.333,11.727,3.464,16.079c2.782,2.091,0.817,4.057-0.248,5.922c-4.405,7.714-3.812,20.119,3.136,25.706
	c7.493,6.027,14.188,13.379,23.356,17.18c1.635,0.677,2.519,1.709,3.096,3.417c1.932,5.706,4.33,11.265,6.075,17.022
	c3.614,11.925,9.692,21.944,20.479,28.739c2.25,1.417,3.052,4.121,5.612,5.775c8.196,5.3,16.438,1.833,24.669,1.291
	c2.021-0.134,3.875-0.623,5.153,1.471c1.299,2.128-0.504,3.378-1.479,4.715c-5.175,7.065-4.396,10.153,3.989,13.002
	c5.59,1.896,9.729,6.711,15.806,7.463c3.635-0.461,6.646,0.304,9.753,2.724c5.75,4.479,12.229,7.981,18.372,11.938
	c4.915,3.168,8.552,7.484,12.465,11.572c1.934,2.021,1.617,12.072-0.089,13.988c-1.418,1.594-3.257,1.1-5.021,0.758
	c-3.812-1.859-4.355-5.916-5.984-9.182c-1.166-2.334-2.62-3.05-5.215-3.412c-4.887-0.687-9.911-1.709-13.774-5.162
	c-2.434-2.176-4.154-1.336-5.646,0.783c-2.363,3.358-4.334,7.188-4.631,11.149c-0.354,4.709-1.08,9.207-2.651,13.609
	c0.502,3.045,2.821,4.229,5.365,5.031c2.023,0.637,3.964,1.444,5.883,2.344c3.801,1.965,5.844,4.791,5.565,9.363
	c-0.153,2.53,0.758,5.09,1.597,7.584c1.034,3.065-0.203,4.94-3.538,5.487c-7.068,1.158-9.736,5.293-8.677,12.513
	c0.911,6.2-1.17,11.479-5.896,15.657c-0.955,1.297-2.791,2.648-2.719,3.89c0.39,6.715-4.426,5.291-8.166,5.598
	c-4.04,0.328-2.852-4.736-5.735-5.623c-6.049,8.285-8.057,17.877-8.979,27.812c-0.076,0.805-0.013,1.645,0.806,2.153
	c1.023,1.66,1.977,3.373,3.086,4.976c2.586,3.725,3.146,7.28-0.34,10.842c-2.096,2.145-1.287,4.775-0.189,7.904
	c-4.61-2.078-8.916-0.789-12.933-2.322c-1.789-0.685-3.296-1.051-3.795-3.146c-1.255-5.274-5.132-7.34-10.08-7.735
	c-7.658-0.611-13.504-5.354-19.507-9.164c-4.523-2.869-8.238-6.275-14.134-5.646c-2.504,0.269-4.394-1.94-5.652-4.002
	c-1.929-3.156-0.52-10.764,2.108-13.348c0.876-0.859,2.173-1.865,2.933-1.422c4.271,2.485,6.489,0.239,9.578-2.609
	c2.487-2.297,6.165-0.889,8.558,2.017c3.023,3.674,6.391,5.702,10.773,1.94c0.953-0.818,2.046-0.545,3.188-0.611
	c5.451-0.321,11.1-0.321,14.849-5.436c0.33-0.451,1.173-0.959,1.607-0.836c6.119,1.729,9.759-2.918,14.229-5.416
	c0.562-0.312,1.338-0.775,1.826-0.609c6.644,2.236,7.138-3.547,9.378-7.078c1.147-1.812,0.698-3.557-0.428-5.02
	c-2.028-2.639-0.169-3.924,1.694-4.896c4.298-2.245,5.741-6.456,3.04-10.508c-1.503-2.254-2.525-4.586-2.832-7.211
	c-0.819-7.037-6.271-12.078-7.985-18.721c-0.935-3.605-1.575-7.307-4.18-10.291c-1.817-2.082-3.444-2.992-5.474-0.371
	c-0.386,0.498-0.796,1.152-1.327,1.324c-1.769,0.58-11.271-8.035-11.068-9.941c0.777-7.207-2.489-10.973-9.453-10.701
	c-1.397,0.056-2.271-0.166-2.437-1.604c-0.565-4.859-4.452-4.766-7.761-4.773c-1.94-0.006-2.478-0.182-3.366-2.071
	c-1.787-3.802-4.333-7.259-6.668-10.785c-2.293-3.467-5.055,0.17-7.559-0.381c-0.633-0.226-1.281-0.427-1.538-1.152
	c0.104-1.223,1.013-1.984,1.641-2.916c3.196-3.502-30.043-14.249-27.896-15.361c-1.189,0.381-2.458-2.396-3.727-2.389
	c-5.737-2.832-10.39-6.888-13.917-12.253c-0.962-1.467-1.892-3.034-3.607-3.824c-5.688-0.899-5.962-1.191-6.038-6.444
	c-0.345-2.147-1.849-3.385-3.561-4.403c-2.753-1.638-4.959-3.664-5.376-7.061c-0.101-0.818-0.173-1.952-1.131-1.883
	c-5.896,0.424-4.256-3.396-4.247-6.777c0.005-2.36-0.658-4.987-1.828-7.037c-2.792-4.889-4.351-9.968-5.194-15.563
	c-0.928-6.127-4.481-10.742-11.013-12.354c-1.878-0.462-3.781-1.067-5.065-2.724c-3.506-1.208-6.692-3.178-9.82-5.011
	c-7.053-4.132-10.738-3.312-15.115,3.691c-2.634,4.21-4.79,8.715-7.792,12.7c-2.794,1.266-5.506,2.743-8.558,3.308
	c-1.452,0.268-3.013,0.451-4.091-0.858c-1.153-1.4-0.156-2.734,0.326-4.101c0.8-2.264,4.107-3.857,3.037-6.283
	c-1.322-2.998-4.358-0.214-6.625-0.722c-7.927-1.773-12.333-9.853-9.578-18.854c1.176-3.845,1.962-6.528-2.64-8.631
	c-2.514-1.148-3.607-4.383-3.756-7.098C138.874,178.586,142.898,179.523,145.801,179.135z"/>
<path fill="#ED1C24" d="M267.105,297.187c0,0,47.057-25.414,38.465,20.062"/>
<path fill="#BC202D" d="M295.271,316.293"/>
<rect x="295.653" y="310.227" transform="matrix(-0.9932 -0.1165 0.1165 -0.9932 559.4069 659.7532)" fill="#ED1C24" width="6.657" height="6.606"/>
<rect x="268.245" y="297.64" fill="#ED1C24" width="1.562" height="1.012"/>
<path d="M269.533,298.345c0,0.444-0.825,0.307-1.125,0.307c-0.305,0-1.254-1.197-1.254-1.644c0-0.445,0.95,0.031,1.254,0.031
	C268.709,297.042,269.533,297.901,269.533,298.345z"/>
<polygon fill="#0B0203" points="40.437,262.32 46.569,274.745 60.282,276.738 50.36,286.41 52.702,300.067 40.437,293.619 
	28.172,300.067 30.514,286.41 20.592,276.738 34.303,274.745 "/>
<polygon fill="#0B0203" points="531.281,263.315 537.409,275.742 551.122,277.734 541.201,287.408 543.546,301.063 531.281,294.615 
	519.015,301.063 521.358,287.408 511.436,277.734 525.147,275.742 "/>
<rect x="101.358" y="258.503" fill="none" width="371.007" height="63.214"/>
<text transform="matrix(1 0 0 1 101.3567 314.9685)" font-family="'Helvetica-Bold'" font-size="78.535">B</text>
<text transform="matrix(1 0 0 1 101.3567 314.9685)" fill="none" stroke="#FFFFFF" stroke-width="2" stroke-miterlimit="10" font-family="'Helvetica-Bold'" font-size="78.535">B</text>
<text transform="matrix(1 0 0 1 158.072 314.9685)" font-family="'Helvetica-Bold'" font-size="78.535" letter-spacing="233"> </text>
<text transform="matrix(1 0 0 1 158.072 314.9685)" fill="none" stroke="#FFFFFF" stroke-width="2" stroke-miterlimit="10" font-family="'Helvetica-Bold'" font-size="78.535" letter-spacing="233"> </text>
<text transform="matrix(1 0 0 1 415.6487 314.9685)" font-family="'Helvetica-Bold'" font-size="78.535">N</text>
<text transform="matrix(1 0 0 1 415.6487 314.9685)" fill="none" stroke="#FFFFFF" stroke-width="2" stroke-miterlimit="10" font-family="'Helvetica-Bold'" font-size="78.535">N</text>
<ellipse fill="#ED1C24" cx="304.3" cy="314.391" rx="1.611" ry="4.54"/>
<path fill="none" stroke="#000000" stroke-width="2" stroke-miterlimit="10" d="M145.801,179.135
	c5.141-3.386,5.5-6.699,2.047-11.464c-1.927-2.657-3.418-5.896-4.115-9.089c-0.501-2.29-0.091-5.685,4.105-4.552
	c1.604,0.433,2.802-0.399,4.159-0.854c3.438-1.15,6.555-3.064,10.663-1.5c3.103,1.182,8.148-5.423,7.496-9.776
	c-0.595-3.983,2.544-5.674,4.495-7.866c1.177-1.32,1.615,0.707,1.591,1.776c-0.115,4.944,1.786,8.255,6.908,9.471
	c2.156,0.513,1.793,2.79,2.285,4.469c0.5,1.702,1.359,4.105,3.145,3.92c2.257-0.234,1.125-2.581,0.938-4.051
	c-0.271-2.162,1.007-3.796,1.92-5.405c1.869-3.292,4.056-6.323,2.506-10.44c-0.415-1.104-0.045-2.347,1.376-2.696
	c1.652-0.404,1.965,1.017,2.143,2.024c0.896,5.094,2.472,4.473,7.438,3.367c7.137-1.587,4.37-7.024,6.722-10.188
	c2.348-1.718,4.016,3.36,5.84,0.895c1.045-1.408-0.445-3.939,0.052-6.088c0.938-4.064,3.413-5.185,6.808-2.434
	c3.574,2.896,5.781,1.676,6.903-2.067c1.206-4.022,3.803-5.365,7.667-5.278c7.68,0.172,14.438,1.151,19.528,8.577
	c2.661,3.876,9.23,3.146,14.117,4.159c3.51,0.729,7.21-0.315,10.694,0.864c1.152,0.39,3.02-0.375,3.342,1.309
	c0.301,1.564-1.011,2.623-2.275,3.471c-0.539,0.359-1.062,0.767-1.52,1.225c-2.364,2.372-2.676,4.461,0.93,5.883
	c1.195,0.472,3.334,1.373,2.328,2.324c-3.946,3.717-0.017,7.254,0.522,10.288c0.607,3.425,0.18,4.384-2.428,6.108
	c-3.283,2.168-4.136-0.616-5.825-2.333c-3.938,5.325-8.207,9.783-15.164,10.365c-1.471,0.123-2.546,1.582-2.769,3.126
	c-0.831,5.77-2.333,11.727,3.464,16.079c2.782,2.091,0.817,4.057-0.248,5.922c-4.405,7.714-3.812,20.119,3.136,25.706
	c7.493,6.027,14.188,13.379,23.356,17.18c1.635,0.677,2.519,1.709,3.096,3.417c1.932,5.706,4.33,11.265,6.075,17.022
	c3.614,11.925,9.692,21.944,20.479,28.739c2.25,1.417,3.052,4.121,5.612,5.775c8.196,5.3,16.438,1.833,24.669,1.291
	c2.021-0.134,3.875-0.623,5.153,1.471c1.299,2.128-0.504,3.378-1.479,4.712c-5.175,7.067-4.396,10.156,3.989,13.003
	c5.59,1.896,9.729,6.711,15.806,7.463c3.635-0.461,6.646,0.304,9.753,2.724c5.75,4.479,12.229,7.981,18.372,11.938
	c4.915,3.168,8.552,7.484,12.465,11.574c1.934,2.021,1.617,12.07-0.089,13.988c-1.418,1.594-3.257,1.1-5.021,0.758
	c-3.812-1.861-4.355-5.916-5.984-9.184c-1.166-2.334-2.62-3.048-5.215-3.412c-4.887-0.687-9.911-1.709-13.774-5.162
	c-2.434-2.176-4.154-1.336-5.646,0.783c-2.363,3.358-4.334,7.188-4.631,11.149c-0.354,4.709-1.08,9.207-2.651,13.611
	c0.502,3.043,2.821,4.229,5.365,5.031c2.023,0.637,3.964,1.442,5.883,2.342c3.801,1.963,5.844,4.791,5.565,9.363
	c-0.153,2.532,0.758,5.09,1.597,7.584c1.034,3.065-0.203,4.94-3.538,5.487c-7.068,1.156-9.736,5.295-8.677,12.513
	c0.911,6.2-1.17,11.479-5.896,15.657c-0.955,1.3-2.791,2.648-2.719,3.89c0.39,6.715-4.426,5.291-8.166,5.596
	c-4.04,0.33-2.852-4.734-5.735-5.619c-6.049,8.285-8.057,17.877-8.979,27.812c-0.076,0.805-0.013,1.645,0.806,2.153
	c1.023,1.658,1.977,3.373,3.086,4.974c2.586,3.723,3.146,7.28-0.34,10.842c-2.096,2.146-1.287,4.774-0.189,7.906
	c-4.61-2.078-8.916-0.791-12.933-2.322c-1.789-0.684-3.296-1.051-3.795-3.146c-1.255-5.274-5.132-7.34-10.08-7.735
	c-7.658-0.611-13.504-5.354-19.507-9.164c-4.523-2.869-8.238-6.277-14.134-5.646c-2.504,0.267-4.394-1.942-5.652-4.002
	c-1.929-3.155-0.52-10.764,2.108-13.348c0.876-0.859,2.173-1.865,2.933-1.422c4.271,2.485,6.489,0.24,9.578-2.609
	c2.487-2.297,6.165-0.889,8.558,2.017c3.023,3.674,6.391,5.7,10.773,1.938c0.953-0.818,2.046-0.545,3.188-0.611
	c5.451-0.321,11.1-0.321,14.849-5.436c0.33-0.451,1.173-0.959,1.607-0.834c6.119,1.729,9.759-2.918,14.229-5.416
	c0.562-0.312,1.338-0.775,1.826-0.609c6.644,2.236,7.138-3.549,9.378-7.078c1.147-1.812,0.698-3.557-0.428-5.021
	c-2.028-2.637-0.169-3.922,1.694-4.896c4.298-2.247,5.741-6.456,3.04-10.51c-1.503-2.252-2.525-4.584-2.832-7.211
	c-0.819-7.037-6.271-12.076-7.985-18.721c-0.935-3.605-1.575-7.308-4.18-10.289c-1.817-2.08-3.444-2.994-5.474-0.373
	c-0.386,0.5-0.796,1.154-1.327,1.328c-1.769,0.58-11.271-8.039-11.068-9.941c0.777-7.209-2.489-10.977-9.453-10.703
	c-1.397,0.058-2.271-0.164-2.437-1.604c-0.565-4.861-4.452-4.769-7.761-4.773c-1.94-0.006-2.478-0.182-3.366-2.073
	c-1.787-3.802-4.333-7.257-6.668-10.787c-2.293-3.465-5.055,0.172-7.559-0.379c-0.633-0.226-1.281-0.427-1.538-1.152
	c0.104-1.221,1.013-1.984,1.641-2.914c3.196-3.504-30.043-14.25-27.896-15.363c-1.189,0.381-2.458-2.395-3.727-2.388
	c-5.737-2.832-10.39-6.889-13.917-12.254c-0.962-1.467-1.892-3.035-3.607-3.824c-5.688-0.899-5.962-1.191-6.038-6.444
	c-0.345-2.147-1.849-3.385-3.561-4.404c-2.753-1.638-4.959-3.663-5.376-7.06c-0.101-0.818-0.173-1.952-1.131-1.883
	c-5.896,0.424-4.256-3.396-4.247-6.777c0.005-2.36-0.658-4.987-1.828-7.037c-2.792-4.889-4.351-9.968-5.194-15.563
	c-0.928-6.127-4.481-10.743-11.013-12.354c-1.878-0.462-3.781-1.067-5.065-2.724c-3.506-1.208-6.692-3.178-9.82-5.011
	c-7.053-4.132-10.738-3.312-15.115,3.691c-2.634,4.21-4.79,8.714-7.792,12.7c-2.794,1.265-5.506,2.743-8.558,3.307
	c-1.452,0.269-3.013,0.452-4.091-0.857c-1.153-1.4-0.156-2.734,0.326-4.102c0.8-2.263,4.107-3.856,3.037-6.282
	c-1.322-2.999-4.358-0.214-6.625-0.722c-7.927-1.773-12.333-9.853-9.578-18.854c1.176-3.845,1.962-6.528-2.64-8.631
	c-2.514-1.148-3.607-4.383-3.756-7.098C138.874,178.586,142.898,179.523,145.801,179.135z"/>
<text transform="matrix(0.7902 -0.5918 0.5994 0.8004 131.0735 115.4099)" fill="#074929" font-family="'Algerian'" font-size="52.5096">B</text>
<text transform="matrix(0.8609 -0.4832 0.4894 0.8721 156.9866 95.9646)" fill="#074929" font-family="'Algerian'" font-size="52.5176">E</text>
<text transform="matrix(0.9131 -0.3752 0.3801 0.925 184.2297 80.741)" fill="#074929" font-family="'Algerian'" font-size="52.5192">L</text>
<text transform="matrix(0.95 -0.2686 0.2721 0.9623 209.554 70.2698)" fill="#074929" font-family="'Algerian'" font-size="52.5138">L</text>
<text transform="matrix(0.9778 -0.1361 0.1378 0.9905 235.634 62.4207)" fill="#074929" font-family="'Algerian'" font-size="52.518">A</text>
<text transform="matrix(0.9868 -0.0308 0.0312 0.9995 273.6624 57.7878)" font-family="'Algerian'" font-size="52.5138"> </text>
<text transform="matrix(0.9855 0.0589 -0.0596 0.9982 285.8342 56.9583)" fill="#ED1C24" font-family="'Algerian'" font-size="52.5138">N</text>
<text transform="matrix(0.9666 0.2008 -0.2034 0.9791 315.7502 58.3645)" fill="#ED1C24" font-family="'Algerian'" font-size="52.5138">A</text>
<text transform="matrix(0.9282 0.3363 -0.3407 0.9402 352.9495 66.3289)" fill="#ED1C24" font-family="'Algerian'" font-size="52.5138">P</text>
<text transform="matrix(0.8777 0.4519 -0.4578 0.8891 380.7805 76.2727)" fill="#ED1C24" font-family="'Algerian'" font-size="52.518">O</text>
<text transform="matrix(0.8145 0.5579 -0.5651 0.825 408.5891 90.656)" fill="#ED1C24" font-family="'Algerian'" font-size="52.5138">L</text>
<text transform="matrix(0.7602 0.6298 -0.638 0.7701 431.1936 106.4412)" fill="#ED1C24" font-family="'Algerian'" font-size="52.519">I</text>
<path fill="none" d="M132.682,508.357c0,0,211.926,133.816,374.122-71.188"/>
<path fill="none" d="M140.072,503.722c0,0,221.106,142.683,369.468-73.408"/>
<text transform="matrix(0.8842 0.4421 -0.4472 0.8944 148.4504 508.9675)" fill="#ED1C24" font-family="'Algerian'" font-size="41.1957">Q</text>
<text transform="matrix(0.9157 0.3725 -0.3769 0.9263 173.0022 521.1384)" fill="#ED1C24" font-family="'Algerian'" font-size="41.1975">U</text>
<text transform="matrix(0.9409 0.3031 -0.3066 0.9518 197.1506 530.9275)" fill="#ED1C24" font-family="'Algerian'" font-size="41.1942">E</text>
<text transform="matrix(0.9621 0.227 -0.2296 0.9733 222.5676 539.072)" fill="#ED1C24" font-family="'Algerian'" font-size="41.1957">E</text>
<text transform="matrix(0.978 0.1438 -0.1455 0.9894 248.6653 545.1619)" fill="#ED1C24" font-family="'Algerian'" font-size="41.1974">N</text>
<text transform="matrix(0.9853 0.0804 -0.0813 0.9967 273.9875 548.6218)" font-family="'Algerian'" font-size="41.1957"> </text>
<text transform="matrix(0.9884 0.016 -0.0162 0.9999 285.2463 549.7107)" fill="#074929" font-family="'Algerian'" font-size="41.197">S</text>
<text transform="matrix(0.9852 -0.0814 0.0824 0.9966 309.5608 550.0593)" fill="#074929" font-family="'Algerian'" font-size="41.1957">T</text>
<text transform="matrix(0.9697 -0.1922 0.1944 0.9809 335.0139 547.9216)" fill="#074929" font-family="'Algerian'" font-size="41.1957">R</text>
<text transform="matrix(0.9389 -0.3092 0.3128 0.9498 362.4631 542.3367)" fill="#074929" font-family="'Algerian'" font-size="41.1957">E</text>
<text transform="matrix(0.8945 -0.4211 0.4259 0.9048 388.4592 533.6404)" fill="#074929" font-family="'Algerian'" font-size="41.1931">E</text>
<text transform="matrix(0.8407 -0.5201 0.5261 0.8504 413.0833 521.8523)" fill="#074929" font-family="'Algerian'" font-size="41.1957">T</text>
<rect x="198.751" y="345.359" fill="none" width="172.275" height="76"/>
<text transform="matrix(1 0 0 1 254.884 412.0583)" font-family="'Algerian'" font-size="100">3</text>
</svg>
