<?xml version="1.0" encoding="utf-8"?>
<!-- Generator: Adobe Illustrator 16.0.0, SVG Export Plug-In . SVG Version: 6.00 Build 0)  -->
<!DOCTYPE svg PUBLIC "-//W3C//DTD SVG 1.1//EN" "http://www.w3.org/Graphics/SVG/1.1/DTD/svg11.dtd">
<svg version="1.1" id="Layer_1" xmlns="http://www.w3.org/2000/svg" xmlns:xlink="http://www.w3.org/1999/xlink" x="0px" y="0px"
	 width="644.432px" height="482.716px" viewBox="0 0 644.432 482.716" enable-background="new 0 0 644.432 482.716"
	 xml:space="preserve">
<rect x="56.765" y="162.825" fill="none" width="520.667" height="10.972"/>
<text transform="matrix(1 0 0 1 56.7646 171.417)"><tspan x="0" y="0" fill="#D6D5DA" font-family="'Arial-BoldMT'" font-size="12">Colour</tspan><tspan x="38.66" y="0" fill="#D6D5DA" font-family="'Arial-BoldMT'" font-size="12" letter-spacing="102"> </tspan><tspan x="144.833" y="0" fill="#D6D5DA" font-family="'Arial-BoldMT'" font-size="12">Name</tspan><tspan x="177.517" y="0" fill="#D6D5DA" font-family="'Arial-BoldMT'" font-size="12" letter-spacing="102"> </tspan><tspan x="283.689" y="0" fill="#D6D5DA" font-family="'Arial-BoldMT'" font-size="12">Temp</tspan><tspan x="315.693" y="0" fill="none" font-family="'Arial-BoldMT'" font-size="12">-</tspan><tspan x="319.689" y="0" fill="#D6D5DA" font-family="'Arial-BoldMT'" font-size="12">(°C)</tspan><tspan x="341.146" y="0" fill="#D6D5DA" font-family="'Arial-BoldMT'" font-size="12" letter-spacing="102"> </tspan><tspan x="447.319" y="0" fill="#D6D5DA" font-family="'Arial-BoldMT'" font-size="12">Memoy-Time</tspan></text>
<rect x="24.383" y="14.021" fill="none" width="595.666" height="113.993"/>
<text transform="matrix(1 0 0 1 123.582 43.5889)"><tspan x="0" y="0" fill="#5CC7D3" font-family="'CoolveticaRg-Regular'" font-size="44">Colour &amp; Temperature </tspan><tspan x="27.477" y="52.8" fill="#5CC7D3" font-family="'CoolveticaRg-Regular'" font-size="44">Spectrum Of Stars</tspan></text>
<rect x="152.811" y="206.245" fill="none" width="132.621" height="193.575"/>
<text transform="matrix(1 0 0 1 182.1162 214.8364)"><tspan x="0" y="0" fill="#D6D5DA" font-family="'Arial-BoldMT'" font-size="12">Spica (Virgo)</tspan><tspan x="4.327" y="43.2" fill="#D6D5DA" font-family="'Arial-BoldMT'" font-size="12">Vega (Lyra)</tspan><tspan x="2.004" y="86.4" fill="#D6D5DA" font-family="'Arial-BoldMT'" font-size="12">Sun (Helios)</tspan><tspan x="-13.998" y="129.6" fill="#D6D5DA" font-family="'Arial-BoldMT'" font-size="12">Arcturus (Boötes)</tspan><tspan x="-16.673" y="172.8" fill="#D6D5DA" font-family="'Arial-BoldMT'" font-size="12">Antares (Scorpius)</tspan></text>
<rect x="305.811" y="206.245" fill="none" width="132.621" height="193.636"/>
<text transform="matrix(1 0 0 1 330.0859 214.8364)"><tspan x="0" y="0" fill="#D6D5DA" font-family="'Arial-BoldMT'" font-size="12">28,000 - 11,000</tspan><tspan x="3.337" y="43.2" fill="#D6D5DA" font-family="'Arial-BoldMT'" font-size="12">11,000 - 7,500</tspan><tspan x="6.674" y="86.4" fill="#D6D5DA" font-family="'Arial-BoldMT'" font-size="12">6,000 - 5,000</tspan><tspan x="6.674" y="129.6" fill="#D6D5DA" font-family="'Arial-BoldMT'" font-size="12">5,000 - 3,600</tspan><tspan x="6.674" y="172.8" fill="#D6D5DA" font-family="'Arial-BoldMT'" font-size="12">3,600 - 2,000</tspan></text>
<circle fill="#5CC7D3" cx="74.765" cy="210.952" r="14.833"/>
<circle fill="#D9BA2D" cx="74.765" cy="298.252" r="14.833"/>
<circle fill="#EE3346" cx="74.765" cy="385.047" r="14.833"/>
<circle fill="#F47924" cx="74.765" cy="342.753" r="14.833"/>
<circle fill="#FFFFFF" cx="74.765" cy="256.192" r="14.833"/>
<rect x="494.432" y="206.244" fill="none" width="96" height="193.637"/>
<text transform="matrix(1 0 0 1 504.0938 214.8359)"><tspan x="0" y="0" fill="#D6D5DA" font-family="'Arial-BoldMT'" font-size="12">12 - 6 Months</tspan><tspan x="3.337" y="43.2" fill="#D6D5DA" font-family="'Arial-BoldMT'" font-size="12">6 - 3 Months</tspan><tspan x="6.674" y="86.399" fill="#D6D5DA" font-family="'Arial-BoldMT'" font-size="12">3 - 1 Month</tspan><tspan x="8.991" y="129.601" fill="#D6D5DA" font-family="'Arial-BoldMT'" font-size="12">4 - 1 Week</tspan><tspan x="10.321" y="172.8" fill="#D6D5DA" font-family="'Arial-BoldMT'" font-size="12">7 - 0 Days</tspan></text>
</svg>
